<svg width="651" height="763" viewBox="0 0 651 763" fill="none" xmlns="http://www.w3.org/2000/svg">
<path fill-rule="evenodd" clip-rule="evenodd" d="M212.521 635.285L120.557 635.285C111.008 635.307 101.858 639.258 95.1077 646.273C88.3574 653.287 84.5574 662.794 84.5393 672.713L84.5393 763L651 763L651 399.479L560.326 305.278C557.305 302.139 555.607 297.882 555.605 293.443L555.605 225.617L619.143 225.517L619.143 321.047C619.143 330.989 622.945 340.523 629.712 347.553C635.475 353.54 642.987 357.292 651 358.274L651 0.000183105L5.66842e-06 0.000187228L0 763L21.0012 763L21.0012 700.374C21.0007 698.173 21.4174 695.994 22.2275 693.961C23.0377 691.928 24.2256 690.081 25.7231 688.525L135.806 574.174C138.828 571.036 142.926 569.272 147.199 569.269L212.521 569.269L212.521 635.285ZM288.701 634.058L223.379 634.058L223.324 568.057L315.289 568.057C320.027 568.055 324.72 567.084 329.097 565.198C333.474 563.313 337.451 560.55 340.801 557.068C344.151 553.586 346.807 549.452 348.619 544.904C350.431 540.355 351.363 535.48 351.361 530.558L351.361 435.584L414.899 435.584L414.899 502.968C414.896 507.407 413.198 511.663 410.177 514.803L300.094 629.154C297.072 632.292 292.974 634.056 288.701 634.058ZM542.167 291.846L542.098 225.845L476.776 225.845C472.499 225.847 468.397 227.611 465.369 230.75L355.272 345.101C352.252 348.24 350.553 352.497 350.551 356.935L350.551 424.334L414.116 424.334L414.116 329.346C414.116 319.403 417.918 309.867 424.685 302.835C431.452 295.803 440.63 291.85 450.202 291.846L542.167 291.846ZM618.223 143.105L618.223 210.96L554.698 211.031L554.698 115.501C554.698 105.558 550.897 96.0218 544.13 88.9897C537.363 81.9577 528.185 78.0054 518.613 78.0016L427.156 78.0016L427.156 12.0001L492.025 12.0001C494.143 11.9996 496.241 12.4324 498.198 13.274C500.155 14.1156 501.934 15.3495 503.432 16.9051L613.501 131.256C615.003 132.808 616.194 134.655 617.005 136.689C617.815 138.723 618.229 140.904 618.223 143.105ZM494.359 521.989L429.036 521.989C424.759 521.991 420.657 523.755 417.63 526.894L307.561 641.23C306.061 642.785 304.871 644.632 304.061 646.665C303.251 648.699 302.835 650.878 302.839 653.079L302.839 720.464L366.377 720.464L366.377 625.475C366.377 615.533 370.179 605.999 376.946 598.969C383.714 591.939 392.892 587.99 402.463 587.99L494.428 587.99L494.359 521.989Z" fill="black"/>
</svg>
