<?xml version="1.0" encoding="UTF-8"?> <svg xmlns="http://www.w3.org/2000/svg" width="25" height="25" viewBox="0 0 25 25" fill="none"><path opacity="0.89" d="M21.0938 0H3.90625C2.87025 0 1.87669 0.411559 1.14412 1.14412C0.411559 1.87669 0 2.87025 0 3.90625V21.0938C0 22.1298 0.411559 23.1233 1.14412 23.8559C1.87669 24.5884 2.87025 25 3.90625 25H21.0938C22.1298 25 23.1233 24.5884 23.8559 23.8559C24.5885 23.1233 25 22.1298 25 21.0938V3.90625C25 2.87025 24.5885 1.87669 23.8559 1.14412C23.1233 0.411559 22.1298 0 21.0938 0ZM15.1797 12.5H13.4297V18.75H10.8203V12.5H9.58595V10.2969H10.8203V8.86719C10.792 8.51631 10.8403 8.16348 10.9618 7.8331C11.0833 7.50272 11.2752 7.20268 11.5241 6.95376C11.773 6.70485 12.073 6.51299 12.4034 6.39148C12.7338 6.26996 13.0866 6.22169 13.4375 6.25H15.3594V8.39844H13.9453C13.8675 8.39406 13.7898 8.40709 13.7177 8.43658C13.6456 8.46608 13.581 8.51132 13.5286 8.56895C13.4762 8.62659 13.4373 8.6952 13.4148 8.76977C13.3923 8.84435 13.3867 8.92299 13.3984 8.99999V10.2969H15.375L15.1797 12.5Z" fill="url(#paint0_linear_174_2465)"></path><defs><linearGradient id="paint0_linear_174_2465" x1="0" y1="12.5" x2="25" y2="12.5" gradientUnits="userSpaceOnUse"><stop stop-color="#ffffff"></stop><stop offset="0.63" stop-color="white"></stop><stop offset="1" stop-color="#FEFEFE"></stop></linearGradient></defs></svg> 