<?xml version="1.0" encoding="UTF-8"?> <svg xmlns="http://www.w3.org/2000/svg" width="25" height="25" viewBox="0 0 25 25" fill="none"><path opacity="0.89" d="M21.0938 0H3.90625C2.87025 0 1.87669 0.411559 1.14412 1.14412C0.411559 1.87669 0 2.87025 0 3.90625V21.0938C0 22.1298 0.411559 23.1233 1.14412 23.8559C1.87669 24.5884 2.87025 25 3.90625 25H21.0938C22.1298 25 23.1233 24.5884 23.8559 23.8559C24.5884 23.1233 25 22.1298 25 21.0938V3.90625C25 2.87025 24.5884 1.87669 23.8559 1.14412C23.1233 0.411559 22.1298 0 21.0938 0ZM17.4375 9.96094C17.4375 10.0703 17.4375 10.1875 17.4375 10.2969C17.4315 11.5987 17.0769 12.8751 16.4106 13.9935C15.7444 15.1118 14.7908 16.0314 13.6489 16.6565C12.5071 17.2817 11.2186 17.5896 9.91745 17.5484C8.61631 17.5071 7.34995 17.1181 6.25 16.4219C6.45221 16.4465 6.65567 16.4596 6.85937 16.4609C8.01521 16.4608 9.13758 16.0729 10.0469 15.3594C9.51073 15.3517 8.99059 15.1756 8.56013 14.8559C8.12967 14.5362 7.81072 14.0892 7.64844 13.5781C7.80798 13.6096 7.97021 13.6253 8.13282 13.625C8.35951 13.6249 8.58526 13.596 8.80468 13.5391C8.22428 13.4217 7.70245 13.107 7.32787 12.6484C6.95329 12.1898 6.7491 11.6156 6.75001 11.0234C7.10809 11.2187 7.50652 11.3283 7.91407 11.3437C7.56353 11.1091 7.27614 10.7918 7.07722 10.4199C6.8783 10.0479 6.77397 9.63275 6.77345 9.21094C6.77108 8.7583 6.88974 8.31325 7.11718 7.92189C7.7628 8.7131 8.567 9.36029 9.47795 9.82182C10.3889 10.2833 11.3864 10.549 12.4063 10.6016C12.3589 10.4099 12.3353 10.2131 12.3359 10.0156C12.3377 9.50193 12.4933 9.00053 12.7827 8.57611C13.0721 8.15169 13.482 7.82371 13.9596 7.63452C14.4372 7.44533 14.9606 7.40359 15.4621 7.51469C15.9637 7.62579 16.4204 7.88464 16.7734 8.25782C17.3478 8.14284 17.8994 7.93433 18.4062 7.64062C18.2122 8.23351 17.8097 8.73591 17.2734 9.05468C17.7827 8.99601 18.2804 8.86171 18.75 8.65624C18.3928 9.1651 17.9485 9.60681 17.4375 9.96094Z" fill="url(#paint0_linear_174_2466)"></path><defs><linearGradient id="paint0_linear_174_2466" x1="-0.03125" y1="12.5" x2="24.9688" y2="12.5" gradientUnits="userSpaceOnUse"><stop stop-color="#ffffff"></stop><stop offset="0.63" stop-color="white"></stop><stop offset="1" stop-color="#FEFEFE"></stop></linearGradient></defs></svg> 