<?xml version="1.0" encoding="UTF-8"?> <svg xmlns="http://www.w3.org/2000/svg" width="26" height="25" viewBox="0 0 26 25" fill="none"><g opacity="0.89"><path d="M11.8336 16.5393C11.7755 16.6049 11.7088 16.6627 11.6353 16.7112C11.5815 16.7481 11.5183 16.7698 11.4529 16.7737C11.4282 16.7775 11.403 16.7752 11.3795 16.767C11.3559 16.7588 11.3348 16.745 11.318 16.7268C11.3015 16.6733 11.3015 16.6162 11.318 16.5627V14.1409H10.6756V16.7815C10.6644 16.9315 10.7065 17.0806 10.7946 17.2034C10.8325 17.2542 10.8831 17.2946 10.9414 17.3206C10.9998 17.3466 11.0639 17.3573 11.1277 17.3518C11.2582 17.3464 11.3857 17.3116 11.5005 17.2502C11.6409 17.1728 11.767 17.0724 11.8733 16.9534V17.3049H12.5157V14.1799H11.8733L11.8336 16.5393Z" fill="url(#paint0_linear_854_145)"></path><path d="M8.13672 13.6403H8.88225V17.3043H9.60401V13.6403H10.3575V13.0153H8.13672V13.6403Z" fill="url(#paint1_linear_854_145)"></path><path d="M12.5794 10.5936C12.666 10.5991 12.7514 10.571 12.8173 10.5155C12.8465 10.4853 12.8692 10.4498 12.8841 10.4109C12.8991 10.372 12.9061 10.3305 12.9046 10.2889V8.39829C12.9046 8.36299 12.896 8.32822 12.8794 8.29693C12.8628 8.26565 12.8388 8.23876 12.8094 8.21859C12.7436 8.16901 12.6621 8.14409 12.5794 8.14828C12.5017 8.14507 12.4255 8.17009 12.3652 8.21859C12.3392 8.24079 12.3186 8.26846 12.3048 8.29956C12.2911 8.33066 12.2847 8.3644 12.2859 8.39829V10.2967C12.2802 10.3784 12.3057 10.4592 12.3573 10.5233C12.3875 10.5493 12.4228 10.569 12.4609 10.5811C12.4991 10.5932 12.5395 10.5975 12.5794 10.5936Z" fill="url(#paint2_linear_854_145)"></path><path d="M14.1726 14.1012C14.0706 14.1022 13.9702 14.1263 13.8792 14.1715C13.7759 14.2301 13.6823 14.3039 13.6016 14.3903V13.0153H12.9512V17.3043H13.6016V17.0621C13.6803 17.1485 13.7744 17.22 13.8792 17.2731C13.9831 17.3218 14.0972 17.3459 14.2123 17.3434C14.2941 17.3486 14.3761 17.3351 14.4518 17.304C14.5275 17.2728 14.5948 17.2248 14.6485 17.1637C14.759 17.0147 14.8123 16.8321 14.7992 16.6481V14.8903C14.8149 14.6805 14.759 14.4715 14.6406 14.2965C14.584 14.2296 14.512 14.177 14.4306 14.143C14.3492 14.109 14.2608 14.0947 14.1726 14.1012ZM14.1726 16.5621C14.1764 16.6388 14.157 16.7149 14.1171 16.7809C14.095 16.804 14.0677 16.8217 14.0374 16.8326C14.0071 16.8434 13.9746 16.8471 13.9426 16.8434C13.8903 16.8544 13.8363 16.8544 13.784 16.8434C13.7295 16.8129 13.6789 16.7762 13.6333 16.734V14.7262C13.6743 14.6898 13.7196 14.6583 13.7681 14.6325C13.8124 14.6215 13.8587 14.6215 13.903 14.6325C13.9399 14.6294 13.9771 14.6348 14.0115 14.6484C14.0459 14.6619 14.0767 14.6832 14.1012 14.7106C14.1527 14.7837 14.1779 14.8717 14.1726 14.9606V16.5621Z" fill="url(#paint3_linear_854_145)"></path><path d="M21.4148 0H3.96571C2.91394 0 1.9052 0.411559 1.16149 1.14412C0.417775 1.87669 0 2.87025 0 3.90625V21.0938C0 22.1298 0.417775 23.1233 1.16149 23.8559C1.9052 24.5884 2.91394 25 3.96571 25H21.4148C22.4666 25 23.4753 24.5884 24.219 23.8559C24.9627 23.1233 25.3805 22.1298 25.3805 21.0938V3.90625C25.3805 2.87025 24.9627 1.87669 24.219 1.14412C23.4753 0.411559 22.4666 0 21.4148 0ZM14.221 7.61719H14.9428V10.2891C14.9381 10.3525 14.9549 10.4156 14.9903 10.4687C15.0092 10.4891 15.0327 10.5047 15.0589 10.5142C15.0852 10.5237 15.1133 10.5269 15.141 10.5234C15.2134 10.5166 15.2822 10.4895 15.3393 10.4453C15.424 10.3962 15.4992 10.3327 15.5614 10.2578V7.61719H16.2832V11.1016H15.5614V10.7422C15.448 10.878 15.3076 10.9896 15.149 11.0703C15.0198 11.1404 14.876 11.1805 14.7286 11.1875C14.6564 11.1921 14.5843 11.1796 14.518 11.1511C14.4518 11.1226 14.3934 11.0788 14.3479 11.0234C14.2578 10.8866 14.2134 10.7254 14.221 10.5625V7.61719ZM11.5402 8.39844C11.5336 8.27521 11.5568 8.15221 11.6078 8.0395C11.6588 7.92679 11.7362 7.82758 11.8337 7.75001C12.061 7.58085 12.3425 7.49767 12.6268 7.51562C12.8936 7.50347 13.1549 7.59301 13.3565 7.76563C13.4501 7.84591 13.5244 7.94581 13.5738 8.058C13.6232 8.17019 13.6465 8.29184 13.642 8.41405V10.2187C13.6502 10.3488 13.6297 10.479 13.5818 10.6004C13.5338 10.7218 13.4597 10.8315 13.3644 10.9219C13.1418 11.1013 12.8583 11.1906 12.5713 11.1719C12.2943 11.1851 12.0233 11.0896 11.8178 10.9062C11.7215 10.8163 11.6462 10.7068 11.5969 10.5855C11.5476 10.4641 11.5256 10.3337 11.5323 10.2031L11.5402 8.39844ZM9.57318 6.35939L10.0967 8.25H10.1522L10.6519 6.35939H11.445L10.5329 9.17969V11.1406H9.73975V9.26561L8.7642 6.41406L9.57318 6.35939ZM19.0354 16.3047C19.0354 16.9097 18.7914 17.49 18.357 17.9178C17.9227 18.3456 17.3336 18.5859 16.7194 18.5859H8.66903C8.05406 18.5859 7.46417 18.3458 7.02858 17.9183C6.59299 17.4907 6.34723 16.9104 6.34513 16.3047V14.4922C6.34513 13.8851 6.58995 13.3029 7.02577 12.8736C7.46159 12.4443 8.05269 12.2031 8.66903 12.2031H16.7194C17.3344 12.2052 17.9234 12.4473 18.3575 12.8763C18.7916 13.3054 19.0354 13.8864 19.0354 14.4922V16.3047Z" fill="url(#paint4_linear_854_145)"></path><path d="M16.1163 14.0621C15.9871 14.0564 15.8581 14.0763 15.7369 14.1206C15.6156 14.1649 15.5046 14.2327 15.4104 14.3199C15.3203 14.4071 15.2497 14.512 15.2033 14.6277C15.1568 14.7434 15.1356 14.8675 15.1407 14.9918V16.4059C15.1237 16.6679 15.212 16.9261 15.3866 17.1246C15.4736 17.2154 15.5798 17.2863 15.6977 17.3322C15.8155 17.3781 15.9422 17.3979 16.0687 17.3902C16.1988 17.3994 16.3294 17.3819 16.4522 17.3389C16.5751 17.2959 16.6876 17.2282 16.7826 17.1402C16.8714 17.0403 16.9389 16.9237 16.9811 16.7976C17.0234 16.6714 17.0394 16.5382 17.0284 16.4059V16.2496H16.3701V16.3902C16.3822 16.5135 16.3603 16.6376 16.3067 16.7496C16.2776 16.7804 16.2417 16.8041 16.2018 16.819C16.1619 16.8339 16.1191 16.8396 16.0767 16.8355C16.0358 16.8394 15.9946 16.8329 15.9571 16.8164C15.9196 16.8 15.887 16.7743 15.8625 16.7418C15.8141 16.631 15.7924 16.5107 15.7991 16.3902V15.7965H17.0284V15.0152C17.0456 14.7616 16.9601 14.5115 16.7905 14.3199C16.7022 14.2335 16.5967 14.1661 16.4807 14.1217C16.3647 14.0774 16.2406 14.0571 16.1163 14.0621ZM16.3701 15.3043H15.7991V14.984C15.7897 14.885 15.8149 14.7858 15.8704 14.7027C15.8972 14.6728 15.9302 14.6488 15.9671 14.6324C16.004 14.616 16.0441 14.6075 16.0846 14.6075C16.1251 14.6075 16.1652 14.616 16.2021 14.6324C16.239 14.6488 16.272 14.6728 16.2988 14.7027C16.3543 14.7858 16.3795 14.885 16.3701 14.984V15.3043Z" fill="url(#paint5_linear_854_145)"></path></g><defs><linearGradient id="paint0_linear_854_145" x1="10.6359" y1="15.7424" x2="12.476" y2="15.7424" gradientUnits="userSpaceOnUse"><stop stop-color="#F2F2F2"></stop><stop offset="0.63" stop-color="white"></stop><stop offset="1" stop-color="#FEFEFE"></stop></linearGradient><linearGradient id="paint1_linear_854_145" x1="8.13672" y1="15.1637" x2="10.3575" y2="15.1637" gradientUnits="userSpaceOnUse"><stop stop-color="#F2F2F2"></stop><stop offset="0.63" stop-color="white"></stop><stop offset="1" stop-color="#FEFEFE"></stop></linearGradient><linearGradient id="paint2_linear_854_145" x1="12.2859" y1="9.36703" x2="12.9046" y2="9.36703" gradientUnits="userSpaceOnUse"><stop stop-color="#F2F2F2"></stop><stop offset="0.63" stop-color="white"></stop><stop offset="1" stop-color="#FEFEFE"></stop></linearGradient><linearGradient id="paint3_linear_854_145" x1="12.9512" y1="15.1793" x2="14.7992" y2="15.1793" gradientUnits="userSpaceOnUse"><stop stop-color="#F2F2F2"></stop><stop offset="0.63" stop-color="white"></stop><stop offset="1" stop-color="#FEFEFE"></stop></linearGradient><linearGradient id="paint4_linear_854_145" x1="0" y1="12.5" x2="25.3805" y2="12.5" gradientUnits="userSpaceOnUse"><stop stop-color="#F2F2F2"></stop><stop offset="0.63" stop-color="white"></stop><stop offset="1" stop-color="#FEFEFE"></stop></linearGradient><linearGradient id="paint5_linear_854_145" x1="15.1407" y1="15.7262" x2="17.0284" y2="15.7262" gradientUnits="userSpaceOnUse"><stop stop-color="#F2F2F2"></stop><stop offset="0.63" stop-color="white"></stop><stop offset="1" stop-color="#FEFEFE"></stop></linearGradient></defs></svg> 