<svg width="208" height="208" viewBox="0 0 208 208" fill="none" xmlns="http://www.w3.org/2000/svg">
<circle cx="104.001" cy="104.001" r="54.999" fill="#DA8000"/>
<path d="M99.3777 96.1005C99.2866 96.0465 99.1828 96.0175 99.0769 96.0166C98.971 96.0157 98.8668 96.0428 98.7747 96.0952C98.6827 96.1476 98.6062 96.2235 98.553 96.315C98.4997 96.4066 98.4717 96.5106 98.4717 96.6165V110.51C98.4717 110.616 98.4997 110.72 98.553 110.812C98.6062 110.904 98.6827 110.979 98.7747 111.032C98.8668 111.084 98.971 111.111 99.0769 111.11C99.1828 111.109 99.2866 111.081 99.3777 111.026L111.101 104.079C111.19 104.026 111.264 103.951 111.316 103.86C111.367 103.77 111.395 103.668 111.395 103.563C111.395 103.459 111.367 103.357 111.316 103.267C111.264 103.176 111.19 103.101 111.101 103.047L99.3777 96.1005Z" fill="white"/>
<path d="M62.0991 169.376L60.2267 168.119C59.317 167.504 59.0799 166.551 59.6368 165.704C60.2043 164.863 61.1733 164.727 62.0883 165.332L63.3366 166.17L64.6997 164.138L65.3238 164.557L62.0885 169.371L62.0991 169.376ZM61.7911 165.924C61.2146 165.542 60.6057 165.621 60.2716 166.129C59.9374 166.636 60.0796 167.224 60.6614 167.622L61.8409 168.412L62.9812 166.72L61.8017 165.929L61.7911 165.924Z" fill="white"/>
<path d="M56.1641 165.181L55.5718 164.698L58.822 160.7L56.5533 158.86L56.9668 158.353L59.8278 160.675L56.1641 165.181Z" fill="white"/>
<path d="M49.7876 159.599L49.1585 158.979L51.585 153.243L52.1613 153.81L51.5294 155.281L53.4646 157.179L54.9265 156.535L55.4816 157.091L49.7717 159.604L49.7876 159.599ZM51.2587 155.927L50.1117 158.662L52.8236 157.48L51.2533 155.937L51.2587 155.927Z" fill="white"/>
<path d="M47.5943 152.3L46.356 156.089L45.7799 155.416L46.7417 152.495L43.6972 152.968L43.1475 152.321L47.0762 151.723L48.9204 150.158L49.412 150.736L47.5731 152.29L47.5943 152.3Z" fill="white"/>
<path d="M39.1701 145.52L40.1528 147.072L39.5965 147.416L37.2243 143.67L37.7806 143.327L38.7633 144.879L43.1182 142.137L43.525 142.778L39.1701 145.52Z" fill="white"/>
<path d="M36.7001 136.163L38.0783 138.907L40.5203 137.682L40.8688 138.36L35.6829 140.963L35.3344 140.285L37.4903 139.208L36.1121 136.464L33.9562 137.541L33.6076 136.863L38.7935 134.26L39.1421 134.938L36.7001 136.163Z" fill="white"/>
<path d="M32.1711 133.494L30.8309 130.015L31.44 129.777L32.5005 132.547L34.1583 131.909L33.2877 129.631L33.8968 129.394L34.7674 131.671L36.69 130.927L35.6241 128.141L36.2332 127.904L37.5787 131.399L32.1658 133.478L32.1711 133.494Z" fill="white"/>
<path d="M28.738 123.072L27.8956 119.445L28.5363 119.303L29.205 122.194L30.9313 121.788L30.3837 119.421L31.0244 119.279L31.572 121.646L34.2249 121.03L34.3934 121.777L28.7433 123.088L28.738 123.072Z" fill="white"/>
<path d="M31.071 115.911L27.3383 116.41L27.2387 115.658L30.9714 115.16C31.8238 115.044 32.3276 114.357 32.2175 113.494C32.1075 112.631 31.4305 112.106 30.5834 112.21L26.8506 112.709L26.751 111.957L30.4838 111.459C31.728 111.301 32.6958 112.091 32.8688 113.41C33.0418 114.728 32.3153 115.754 31.071 115.911Z" fill="white"/>
<path d="M26.4802 108.405L26.4494 107.648L31.5899 107.458L31.4824 104.531L32.1336 104.5L32.2719 108.184L26.4802 108.405Z" fill="white"/>
<path d="M26.3987 101.703L26.4367 100.941L31.5766 101.201L31.718 98.2792L32.3744 98.317L32.195 102.001L26.3934 101.713L26.3987 101.703Z" fill="white"/>
<path d="M27.4178 91.3019L28.1053 87.6342L28.7457 87.7567L28.1968 90.6729L29.938 91.0033L30.3857 88.6058L31.0261 88.7284L30.5784 91.1259L33.2511 91.6322L33.1125 92.3837L27.4125 91.3125L27.4178 91.3019Z" fill="white"/>
<path d="M28.834 84.7019L29.0308 83.9663L34.6403 85.4556L34.4435 86.1912L28.834 84.7019Z" fill="white"/>
<path d="M30.0152 80.58L30.2596 79.8551L35.1331 81.5182L36.0842 78.7508L36.7033 78.9686L35.5078 82.461L30.0152 80.58Z" fill="white"/>
<path d="M32.3255 74.1774L32.7821 73.188L36.7046 73.3412C37.6097 73.3847 38.1496 73.4965 38.1496 73.4965C38.1496 73.4965 37.7212 73.1625 37.1397 72.5265L34.47 69.5851L34.9159 68.6169L40.1749 71.0693L39.8564 71.757L36.682 70.2708C35.8566 69.8833 35.3752 69.6021 35.3752 69.6021C35.3752 69.6021 35.7824 69.9785 36.3586 70.625L39.023 73.5506L38.7522 74.1431L34.8562 73.99C33.9457 73.9571 33.39 73.877 33.39 73.877C33.39 73.877 33.9191 74.0629 34.7021 74.4292L37.9188 75.9367L37.6004 76.6245L32.3414 74.1721L32.3255 74.1774Z" fill="white"/>
<path d="M67.1967 35.7837L69.2043 34.7646C70.1843 34.2629 71.1369 34.5288 71.5963 35.4346C72.0557 36.3404 71.6998 37.2611 70.7199 37.7628L69.385 38.444L70.4992 40.6317L69.8265 40.9697L67.2073 35.789L67.1967 35.7837ZM70.3553 37.1959C70.9751 36.8843 71.1981 36.3076 70.9235 35.7725C70.6489 35.2375 70.0562 35.0727 69.4365 35.3842L68.1599 36.0284L69.0893 37.8454L70.3659 37.2012L70.3553 37.1959Z" fill="white"/>
<path d="M73.7277 32.6632L74.4374 32.3835L76.3424 37.1662L79.0595 36.0791L79.2969 36.6882L75.8701 38.0549L73.7277 32.6632Z" fill="white"/>
<path d="M81.7194 29.7988L82.5614 29.5458L86.3932 34.4739L85.6147 34.7058L84.637 33.4341L82.0315 34.1931L81.8918 35.7916L81.1345 36.0077L81.7141 29.7829L81.7194 29.7988ZM84.2142 32.8777L82.3802 30.5408L82.0906 33.4944L84.2036 32.8724L84.2142 32.8777Z" fill="white"/>
<path d="M89.1551 31.4486L86.4378 28.523L87.3062 28.3494L89.3997 30.6178L90.4674 27.7234L91.2934 27.5551L89.9018 31.2801L90.3805 33.6524L89.6286 33.8049L89.1551 31.4486Z" fill="white"/>
<path d="M99.1549 27.3528L97.3284 27.4564L97.2869 26.7999L101.718 26.5461L101.76 27.2026L99.9172 27.3114L100.212 32.4521L99.4501 32.4935L99.1549 27.3528Z" fill="white"/>
<path d="M108.586 29.7529L105.526 29.622L105.417 32.3481L104.655 32.3101L104.895 26.5243L105.657 26.5623L105.548 28.9709L108.608 29.1018L108.717 26.6932L109.479 26.7313L109.239 32.5171L108.477 32.479L108.586 29.7529Z" fill="white"/>
<path d="M113.104 27.0796L116.798 27.6083L116.713 28.2541L113.77 27.8374L113.524 29.5946L115.933 29.9418L115.847 30.5875L113.439 30.2404L113.145 32.2781L116.099 32.7001L116.013 33.3458L112.303 32.8223L113.12 27.0743L113.104 27.0796Z" fill="white"/>
<path d="M123.906 29.1734L127.489 30.2155L127.308 30.84L124.467 30.0105L123.972 31.7092L126.306 32.3898L126.125 33.0142L123.791 32.3337L123.036 34.9478L122.306 34.7405L123.922 29.1681L123.906 29.1734Z" fill="white"/>
<path d="M128.982 34.6867L130.368 31.184L131.067 31.4548L129.681 34.9576C129.362 35.7512 129.71 36.5351 130.531 36.8538C131.335 37.1777 132.124 36.8452 132.443 36.0516L133.829 32.5488L134.527 32.8197L133.141 36.3224C132.679 37.4812 131.519 37.9456 130.281 37.457C129.043 36.9684 128.51 35.8401 128.977 34.6708L128.982 34.6867Z" fill="white"/>
<path d="M137.824 34.354L138.501 34.6936L136.113 39.2697L138.705 40.6229L138.413 41.2049L135.139 39.4961L137.824 34.354Z" fill="white"/>
<path d="M143.653 37.5152L144.298 37.9183L141.577 42.2876L144.058 43.8365L143.713 44.3919L140.587 42.4398L143.653 37.5152Z" fill="white"/>
<path d="M152.263 43.4768L155.135 45.8573L154.721 46.365L152.442 44.4669L151.307 45.8313L153.174 47.39L152.761 47.8977L150.883 46.3337L149.144 48.4278L148.557 47.9348L152.263 43.4768Z" fill="white"/>
<path d="M157.323 47.9082L157.878 48.4383L153.86 52.6206L153.305 52.0905L157.323 47.9082Z" fill="white"/>
<path d="M160.364 50.9296L160.877 51.4914L157.061 54.954L159.033 57.1216L158.545 57.5657L156.066 54.8257L160.364 50.9296Z" fill="white"/>
<path d="M164.825 56.0547L165.47 56.9343L163.433 60.2827C162.966 61.055 162.59 61.4621 162.59 61.4621C162.59 61.4621 163.093 61.251 163.935 61.0509L167.806 60.1453L168.424 60.9984L163.735 64.4069L163.291 63.787L166.126 61.726C166.857 61.1923 167.344 60.907 167.344 60.907C167.344 60.907 166.81 61.0757 165.978 61.2811L162.134 62.1868L161.748 61.6622L163.774 58.335C164.247 57.5521 164.575 57.1079 164.575 57.1079C164.575 57.1079 164.151 57.4779 163.447 57.9852L160.575 60.0673L160.131 59.4474L164.82 56.0388L164.825 56.0547Z" fill="white"/>
<path d="M181.433 105.186L181.351 107.436C181.312 108.542 180.618 109.24 179.618 109.202C178.617 109.163 177.972 108.416 178.011 107.31L178.06 105.812L175.615 105.724L175.647 104.972L181.433 105.186ZM178.657 107.263C178.629 107.951 179.015 108.423 179.634 108.455C180.254 108.488 180.667 108.033 180.695 107.345L180.744 105.926L178.706 105.844L178.657 107.263Z" fill="white"/>
<path d="M180.996 112.449L180.894 113.206L175.792 112.554L175.423 115.454L174.777 115.369L175.248 111.711L180.996 112.449Z" fill="white"/>
<path d="M179.604 120.821L179.413 121.679L173.244 122.624L173.43 121.83L175.019 121.594L175.631 118.948L174.309 118.046L174.484 117.273L179.631 120.821L179.604 120.821ZM175.702 121.499L178.635 121.037L176.197 119.351L175.702 121.499Z" fill="white"/>
<path d="M174.54 126.533L178.416 125.59L178.14 126.431L175.143 127.153L177.146 129.495L176.886 130.305L174.317 127.268L172.015 126.524L172.249 125.794L174.54 126.533Z" fill="white"/>
<path d="M173.235 137.241L174.037 135.59L174.619 135.882L172.697 139.871L172.116 139.579L172.917 137.929L168.277 135.694L168.617 135.017L173.246 137.246L173.235 137.241Z" fill="white"/>
<path d="M166.577 144.283L168.169 141.665L165.836 140.243L166.228 139.592L171.174 142.616L170.782 143.267L168.724 142.009L167.133 144.628L169.19 145.885L168.798 146.536L163.852 143.512L164.244 142.861L166.577 144.283Z" fill="white"/>
<path d="M166.703 149.551L164.455 152.529L163.936 152.136L165.718 149.772L164.306 148.706L162.842 150.647L162.324 150.255L163.788 148.314L162.148 147.068L160.345 149.448L159.827 149.055L162.081 146.067L166.708 149.567L166.703 149.551Z" fill="white"/>
<path d="M159.642 157.981L156.997 160.614L156.543 160.147L158.652 158.054L157.405 156.792L155.671 158.505L155.217 158.039L156.95 156.326L155.031 154.396L155.577 153.862L159.669 157.981L159.642 157.981Z" fill="white"/>
<path d="M152.35 159.739L154.734 162.643L154.151 163.119L151.773 160.204C151.228 159.547 150.382 159.466 149.703 160.027C149.03 160.576 148.934 161.429 149.478 162.086L151.862 164.99L151.279 165.465L148.901 162.551C148.113 161.586 148.274 160.342 149.302 159.507C150.335 158.662 151.579 158.743 152.377 159.712L152.35 159.739Z" fill="white"/>
<path d="M148.347 167.611L147.711 168.033L144.848 163.763L142.416 165.39L142.051 164.85L145.108 162.794L148.337 167.605L148.347 167.611Z" fill="white"/>
<path d="M142.706 171.204L142.033 171.568L139.551 167.065L136.987 168.481L136.664 167.909L139.901 166.129L142.7 171.214L142.706 171.204Z" fill="white"/>
<path d="M133.341 175.803L129.872 177.148L129.635 176.539L132.399 175.463L131.756 173.815L129.489 174.691L129.251 174.082L131.524 173.196L130.542 170.664L131.252 170.384L133.347 175.792L133.341 175.803Z" fill="white"/>
<path d="M126.985 178.071L126.254 178.287L124.551 172.732L125.287 172.505L126.99 178.061L126.985 178.071Z" fill="white"/>
<path d="M122.87 179.252L122.124 179.42L120.96 174.4L118.111 175.064L117.969 174.423L121.565 173.591L122.876 179.241L122.87 179.252Z" fill="white"/>
<path d="M116.242 180.668L115.156 180.799L113.207 177.398C112.758 176.603 112.579 176.09 112.579 176.09C112.579 176.09 112.52 176.629 112.286 177.466L111.201 181.292L110.142 181.423L109.44 175.667L110.203 175.573L110.627 179.057C110.742 179.962 110.752 180.523 110.752 180.523C110.752 180.523 110.854 179.978 111.098 179.148L112.172 175.343L112.824 175.259L114.757 178.639C115.211 179.423 115.443 179.936 115.443 179.936C115.443 179.936 115.322 179.386 115.223 178.528L114.788 175.012L115.55 174.918L116.252 180.673L116.242 180.668Z" fill="white"/>
<path d="M44.2977 59.0035C47.4295 55.0417 50.9012 51.4238 54.6504 48.1742" stroke="white" stroke-width="0.591862" stroke-miterlimit="10"/>
<path d="M173.941 76.2871C175.665 81.0321 176.927 85.8842 177.731 90.7797" stroke="white" stroke-width="0.591862" stroke-miterlimit="10"/>
<path d="M91.0522 179.53C86.0833 178.593 81.267 177.193 76.6538 175.391" stroke="white" stroke-width="0.591862" stroke-miterlimit="10"/>
</svg>
