<svg width="208" height="208" viewBox="0 0 208 208" fill="none" xmlns="http://www.w3.org/2000/svg">
<g filter="url(#filter0_b_1_1972)">
<circle cx="104.004" cy="105.001" r="65.001" fill="white"/>
</g>
<path d="M82.2999 100.096C84.0039 100.096 85.2279 99.148 85.2279 97.708C85.2279 94.456 80.4279 95.632 80.4279 93.688C80.4279 92.932 81.0639 92.452 82.0839 92.452C83.1159 92.452 83.8359 92.98 84.0039 93.904H85.0839C84.8799 92.404 83.7999 91.504 82.0839 91.504C80.4879 91.504 79.3239 92.38 79.3239 93.724C79.3239 96.712 84.1239 95.512 84.1239 97.768C84.1239 98.596 83.3679 99.148 82.2999 99.148C81.1479 99.148 80.2599 98.512 80.1399 97.216H79.0719C79.2159 99.1 80.5239 100.096 82.2999 100.096ZM87.5675 100H92.9915V99.052H88.6715V96.064H92.1995V95.116H88.6715V92.548H92.9675V91.6H87.5675V100ZM95.2892 100H100.713V99.052H96.3932V96.064H99.9212V95.116H96.3932V92.548H100.689V91.6H95.2892V100ZM108.211 100H109.315V92.548H111.979V91.6H105.559V92.548H108.211V100ZM119.592 100H120.696V91.6H119.592V95.092H115.152V91.6H114.048V100H115.152V96.04H119.592V100ZM123.504 100H128.928V99.052H124.608V96.064H128.136V95.116H124.608V92.548H128.904V91.6H123.504V100ZM61.648 116.096C63.352 116.096 64.576 115.148 64.576 113.708C64.576 110.456 59.776 111.632 59.776 109.688C59.776 108.932 60.412 108.452 61.432 108.452C62.464 108.452 63.184 108.98 63.352 109.904H64.432C64.228 108.404 63.148 107.504 61.432 107.504C59.836 107.504 58.672 108.38 58.672 109.724C58.672 112.712 63.472 111.512 63.472 113.768C63.472 114.596 62.716 115.148 61.648 115.148C60.496 115.148 59.608 114.512 59.488 113.216H58.42C58.564 115.1 59.872 116.096 61.648 116.096ZM68.6597 116H69.7637V108.548H72.4277V107.6H66.0077V108.548H68.6597V116ZM77.7476 116.096C80.1236 116.096 81.8876 114.284 81.8876 111.8C81.8876 109.316 80.1236 107.504 77.7476 107.504C75.3476 107.504 73.5956 109.316 73.5956 111.8C73.5956 114.284 75.3476 116.096 77.7476 116.096ZM74.6996 111.8C74.6996 109.856 75.9836 108.452 77.7476 108.452C79.5116 108.452 80.7956 109.868 80.7956 111.8C80.7956 113.732 79.5116 115.148 77.7476 115.148C75.9836 115.148 74.6996 113.744 74.6996 111.8ZM84.2691 116H85.3731V112.232H87.1251L89.4291 116H90.7131L88.2651 112.112C89.2851 111.8 89.9331 110.948 89.9331 109.916C89.9331 108.536 88.8891 107.6 87.3891 107.6H84.2691V116ZM85.3731 111.284V108.548H87.2211C88.1811 108.548 88.8291 109.1 88.8291 109.916C88.8291 110.732 88.1811 111.284 87.2211 111.284H85.3731ZM94.4461 116H95.5501V112.496L98.5741 107.6H97.3501L95.0221 111.404L92.6941 107.6H91.4101L94.4461 112.52V116ZM103.837 116H107.101C108.697 116 109.861 115.016 109.861 113.576C109.861 112.52 109.069 111.656 108.169 111.476C108.841 111.272 109.477 110.552 109.477 109.664C109.477 108.44 108.481 107.6 107.089 107.6H103.837V116ZM104.941 115.052V112.004H107.017C108.025 112.004 108.769 112.64 108.769 113.528C108.769 114.416 108.025 115.052 107.017 115.052H104.941ZM104.941 111.068V108.548H106.945C107.773 108.548 108.421 109.064 108.421 109.808C108.421 110.552 107.773 111.068 106.945 111.068H104.941ZM112.203 116H117.627V115.052H113.307V112.064H116.835V111.116H113.307V108.548H117.603V107.6H112.203V116ZM125.469 116H126.573V107.6H125.469V111.092H121.029V107.6H119.925V116H121.029V112.04H125.469V116ZM129.381 116H130.485V107.6H129.381V116ZM133.294 116H134.398V110.792C134.398 109.544 134.302 108.752 134.302 108.752C134.302 108.752 134.626 109.484 135.31 110.612L138.526 116H139.942V107.6H138.838V112.808C138.838 114.056 138.934 114.848 138.934 114.848C138.934 114.848 138.61 114.116 137.938 112.976L134.71 107.6H133.294V116ZM142.75 116H145.342C147.646 116 149.506 114.44 149.506 111.8C149.506 109.148 147.646 107.6 145.342 107.6H142.75V116ZM143.854 115.052V108.548H145.234C147.022 108.548 148.402 109.736 148.402 111.8C148.402 113.864 147.022 115.052 145.234 115.052H143.854Z" fill="black"/>
<!-- <path d="M62.0991 169.376L60.2267 168.119C59.317 167.504 59.0799 166.551 59.6368 165.704C60.2043 164.863 61.1733 164.727 62.0883 165.332L63.3366 166.17L64.6997 164.138L65.3238 164.557L62.0885 169.371L62.0991 169.376ZM61.7911 165.924C61.2146 165.542 60.6057 165.621 60.2716 166.129C59.9374 166.636 60.0796 167.224 60.6614 167.622L61.8409 168.412L62.9812 166.72L61.8017 165.929L61.7911 165.924Z" fill="white"/>
<path d="M56.1641 165.181L55.5718 164.698L58.822 160.7L56.5533 158.86L56.9668 158.353L59.8278 160.675L56.1641 165.181Z" fill="white"/>
<path d="M49.7876 159.598L49.1585 158.978L51.585 153.243L52.1613 153.81L51.5294 155.281L53.4646 157.179L54.9265 156.535L55.4816 157.091L49.7717 159.604L49.7876 159.598ZM51.2587 155.926L50.1117 158.662L52.8236 157.48L51.2533 155.937L51.2587 155.926Z" fill="white"/>
<path d="M47.5943 152.301L46.356 156.09L45.7799 155.417L46.7417 152.496L43.6972 152.968L43.1475 152.322L47.0762 151.723L48.9204 150.159L49.412 150.736L47.5731 152.29L47.5943 152.301Z" fill="white"/>
<path d="M39.1701 145.519L40.1528 147.072L39.5965 147.415L37.2243 143.669L37.7806 143.326L38.7633 144.878L43.1182 142.136L43.525 142.777L39.1701 145.519Z" fill="white"/>
<path d="M36.7001 136.163L38.0783 138.907L40.5203 137.682L40.8688 138.36L35.6829 140.963L35.3344 140.285L37.4903 139.208L36.1121 136.464L33.9562 137.541L33.6076 136.863L38.7935 134.26L39.1421 134.938L36.7001 136.163Z" fill="white"/>
<path d="M32.1711 133.494L30.8309 130.014L31.44 129.777L32.5005 132.547L34.1583 131.908L33.2877 129.631L33.8968 129.393L34.7674 131.671L36.69 130.927L35.6241 128.141L36.2332 127.904L37.5787 131.399L32.1658 133.478L32.1711 133.494Z" fill="white"/>
<path d="M28.738 123.071L27.8956 119.444L28.5363 119.302L29.205 122.193L30.9313 121.788L30.3837 119.421L31.0244 119.279L31.572 121.646L34.2249 121.03L34.3934 121.776L28.7433 123.087L28.738 123.071Z" fill="white"/>
<path d="M31.071 115.912L27.3383 116.41L27.2387 115.658L30.9714 115.16C31.8238 115.045 32.3276 114.357 32.2175 113.494C32.1075 112.631 31.4305 112.106 30.5834 112.211L26.8506 112.709L26.751 111.957L30.4838 111.459C31.728 111.302 32.6958 112.092 32.8688 113.41C33.0418 114.729 32.3153 115.755 31.071 115.912Z" fill="white"/>
<path d="M26.4802 108.405L26.4494 107.648L31.5899 107.458L31.4824 104.531L32.1336 104.5L32.2719 108.184L26.4802 108.405Z" fill="white"/>
<path d="M26.3987 101.702L26.4367 100.94L31.5766 101.201L31.718 98.2787L32.3744 98.3166L32.195 102.001L26.3934 101.713L26.3987 101.702Z" fill="white"/>
<path d="M27.4178 91.3014L28.1053 87.6337L28.7457 87.7562L28.1968 90.6724L29.938 91.0028L30.3857 88.6053L31.0261 88.7279L30.5784 91.1254L33.2511 91.6317L33.1125 92.3832L27.4125 91.312L27.4178 91.3014Z" fill="white"/>
<path d="M28.834 84.7021L29.0308 83.9665L34.6403 85.4559L34.4435 86.1915L28.834 84.7021Z" fill="white"/>
<path d="M30.0152 80.58L30.2596 79.8551L35.1331 81.5182L36.0842 78.7508L36.7033 78.9686L35.5078 82.461L30.0152 80.58Z" fill="white"/>
<path d="M32.3255 74.1774L32.7821 73.188L36.7046 73.3412C37.6097 73.3847 38.1496 73.4965 38.1496 73.4965C38.1496 73.4965 37.7212 73.1625 37.1397 72.5265L34.47 69.5851L34.9159 68.6169L40.1749 71.0693L39.8564 71.757L36.682 70.2708C35.8566 69.8833 35.3752 69.6021 35.3752 69.6021C35.3752 69.6021 35.7824 69.9785 36.3586 70.625L39.023 73.5506L38.7522 74.1431L34.8562 73.99C33.9457 73.9571 33.39 73.877 33.39 73.877C33.39 73.877 33.9191 74.0629 34.7021 74.4292L37.9188 75.9367L37.6004 76.6245L32.3414 74.1721L32.3255 74.1774Z" fill="white"/>
<path d="M36.7037 65.4215L38.6346 62.2318L39.1954 62.566L37.657 65.1051L39.1698 66.0228L40.4271 63.9387L40.9878 64.2729L39.7305 66.357L41.4973 67.4286L43.041 64.879L43.6017 65.2132L41.6655 68.4135L36.7037 65.4215Z" fill="white"/>
<path d="M67.1967 35.7835L69.2043 34.7643C70.1843 34.2626 71.1369 34.5285 71.5963 35.4343C72.0557 36.3402 71.6998 37.2608 70.7199 37.7625L69.385 38.4437L70.4992 40.6315L69.8265 40.9694L67.2073 35.7888L67.1967 35.7835ZM70.3553 37.1956C70.9751 36.8841 71.1981 36.3073 70.9235 35.7723C70.6489 35.2373 70.0562 35.0724 69.4365 35.384L68.1599 36.0282L69.0893 37.8451L70.3659 37.2009L70.3553 37.1956Z" fill="white"/>
<path d="M73.7277 32.6629L74.4374 32.3832L76.3424 37.1659L79.0595 36.0788L79.2969 36.6879L75.8701 38.0547L73.7277 32.6629Z" fill="white"/>
<path d="M81.7194 29.7986L82.5614 29.5456L86.3932 34.4736L85.6147 34.7056L84.637 33.4338L82.0315 34.1928L81.8918 35.7914L81.1345 36.0075L81.7141 29.7827L81.7194 29.7986ZM84.2142 32.8774L82.3802 30.5406L82.0906 33.4941L84.2036 32.8721L84.2142 32.8774Z" fill="white"/>
<path d="M89.1551 31.4486L86.4378 28.523L87.3062 28.3494L89.3997 30.6178L90.4674 27.7234L91.2934 27.5551L89.9018 31.2801L90.3805 33.6524L89.6286 33.8049L89.1551 31.4486Z" fill="white"/>
<path d="M99.1549 27.3533L97.3284 27.4569L97.2869 26.8004L101.718 26.5466L101.76 27.2031L99.9172 27.3119L100.212 32.4526L99.4501 32.4939L99.1549 27.3533Z" fill="white"/>
<path d="M108.586 29.7531L105.526 29.6222L105.417 32.3484L104.655 32.3104L104.895 26.5246L105.657 26.5626L105.548 28.9711L108.608 29.102L108.717 26.6935L109.479 26.7315L109.239 32.5173L108.477 32.4793L108.586 29.7531Z" fill="white"/>
<path d="M113.104 27.0796L116.798 27.6083L116.713 28.2541L113.77 27.8374L113.524 29.5946L115.933 29.9418L115.847 30.5875L113.439 30.2404L113.145 32.2781L116.099 32.7001L116.013 33.3458L112.303 32.8223L113.12 27.0743L113.104 27.0796Z" fill="white"/>
<path d="M123.906 29.1739L127.489 30.216L127.308 30.8405L124.467 30.011L123.972 31.7097L126.306 32.3903L126.125 33.0147L123.791 32.3342L123.036 34.9483L122.306 34.7409L123.922 29.1686L123.906 29.1739Z" fill="white"/>
<path d="M128.982 34.6862L130.368 31.1835L131.067 31.4543L129.681 34.9571C129.362 35.7507 129.71 36.5347 130.531 36.8533C131.335 37.1773 132.124 36.8447 132.443 36.0511L133.829 32.5484L134.527 32.8192L133.141 36.3219C132.679 37.4807 131.519 37.9451 130.281 37.4565C129.043 36.9679 128.51 35.8397 128.977 34.6703L128.982 34.6862Z" fill="white"/>
<path d="M137.824 34.3535L138.501 34.6932L136.113 39.2693L138.705 40.6224L138.413 41.2044L135.139 39.4957L137.824 34.3535Z" fill="white"/>
<path d="M143.653 37.5157L144.298 37.9188L141.577 42.288L144.058 43.837L143.713 44.3924L140.587 42.4403L143.653 37.5157Z" fill="white"/>
<path d="M152.263 43.477L155.135 45.8576L154.721 46.3652L152.442 44.4672L151.307 45.8316L153.174 47.3903L152.761 47.898L150.883 46.3339L149.144 48.4281L148.557 47.935L152.263 43.477Z" fill="white"/>
<path d="M157.323 47.9085L157.878 48.4385L153.86 52.6208L153.305 52.0908L157.323 47.9085Z" fill="white"/>
<path d="M160.364 50.9298L160.877 51.4916L157.061 54.9542L159.033 57.1219L158.545 57.5659L156.066 54.8259L160.364 50.9298Z" fill="white"/>
<path d="M164.825 56.0545L165.47 56.9341L163.433 60.2824C162.966 61.0548 162.59 61.4619 162.59 61.4619C162.59 61.4619 163.093 61.2508 163.935 61.0507L167.806 60.145L168.424 60.9981L163.735 64.4067L163.291 63.7868L166.126 61.7258C166.857 61.192 167.344 60.9068 167.344 60.9068C167.344 60.9068 166.81 61.0755 165.978 61.2809L162.134 62.1866L161.748 61.662L163.774 58.3348C164.247 57.5519 164.575 57.1076 164.575 57.1076C164.575 57.1076 164.151 57.4777 163.447 57.985L160.575 60.0671L160.131 59.4472L164.82 56.0386L164.825 56.0545Z" fill="white"/>
<path d="M170.363 64.1559L172.212 67.3875L171.64 67.7097L170.166 65.1298L168.625 66.0119L169.829 68.1256L169.257 68.4478L168.052 66.3341L166.267 67.3588L167.746 69.9546L167.174 70.2768L165.32 67.0294L170.353 64.1506L170.363 64.1559Z" fill="white"/>
<path d="M181.433 105.186L181.351 107.436C181.312 108.542 180.618 109.24 179.618 109.202C178.617 109.163 177.972 108.416 178.011 107.31L178.06 105.812L175.615 105.724L175.647 104.972L181.433 105.186ZM178.657 107.263C178.629 107.951 179.015 108.423 179.634 108.455C180.254 108.488 180.667 108.033 180.695 107.345L180.744 105.926L178.706 105.844L178.657 107.263Z" fill="white"/>
<path d="M180.996 112.449L180.894 113.206L175.792 112.553L175.423 115.454L174.777 115.368L175.248 111.711L180.996 112.449Z" fill="white"/>
<path d="M179.604 120.822L179.413 121.679L173.244 122.624L173.43 121.831L175.019 121.594L175.631 118.948L174.309 118.047L174.484 117.274L179.631 120.822L179.604 120.822ZM175.702 121.5L178.635 121.038L176.197 119.351L175.702 121.5Z" fill="white"/>
<path d="M174.54 126.533L178.416 125.59L178.14 126.431L175.143 127.153L177.146 129.495L176.886 130.305L174.317 127.268L172.015 126.524L172.249 125.794L174.54 126.533Z" fill="white"/>
<path d="M173.235 137.241L174.037 135.59L174.619 135.882L172.697 139.871L172.116 139.579L172.917 137.928L168.277 135.694L168.617 135.017L173.246 137.246L173.235 137.241Z" fill="white"/>
<path d="M166.577 144.283L168.169 141.665L165.836 140.243L166.228 139.592L171.174 142.616L170.782 143.267L168.724 142.01L167.133 144.628L169.19 145.885L168.798 146.536L163.852 143.512L164.244 142.862L166.577 144.283Z" fill="white"/>
<path d="M166.703 149.551L164.455 152.528L163.936 152.136L165.718 149.772L164.306 148.706L162.842 150.647L162.324 150.255L163.788 148.314L162.148 147.068L160.345 149.447L159.827 149.055L162.081 146.067L166.708 149.567L166.703 149.551Z" fill="white"/>
<path d="M159.642 157.98L156.997 160.613L156.543 160.147L158.652 158.053L157.405 156.792L155.671 158.505L155.217 158.038L156.95 156.325L155.031 154.396L155.577 153.862L159.669 157.98L159.642 157.98Z" fill="white"/>
<path d="M152.35 159.739L154.734 162.643L154.151 163.119L151.773 160.204C151.228 159.547 150.382 159.467 149.703 160.027C149.03 160.577 148.934 161.429 149.478 162.086L151.862 164.99L151.279 165.466L148.901 162.551C148.113 161.587 148.274 160.343 149.302 159.508C150.335 158.662 151.579 158.743 152.377 159.713L152.35 159.739Z" fill="white"/>
<path d="M148.347 167.611L147.711 168.033L144.848 163.763L142.416 165.39L142.051 164.85L145.108 162.794L148.337 167.605L148.347 167.611Z" fill="white"/>
<path d="M142.706 171.204L142.033 171.568L139.551 167.065L136.987 168.481L136.664 167.908L139.901 166.129L142.7 171.214L142.706 171.204Z" fill="white"/>
<path d="M133.341 175.803L129.872 177.149L129.635 176.54L132.399 175.463L131.756 173.816L129.489 174.692L129.251 174.083L131.524 173.196L130.542 170.665L131.252 170.385L133.347 175.793L133.341 175.803Z" fill="white"/>
<path d="M126.985 178.071L126.254 178.287L124.551 172.732L125.287 172.505L126.99 178.06L126.985 178.071Z" fill="white"/>
<path d="M122.87 179.252L122.124 179.42L120.96 174.4L118.111 175.064L117.969 174.423L121.565 173.591L122.876 179.241L122.87 179.252Z" fill="white"/>
<path d="M116.242 180.668L115.156 180.799L113.207 177.397C112.758 176.603 112.579 176.089 112.579 176.089C112.579 176.089 112.52 176.629 112.286 177.465L111.201 181.291L110.142 181.422L109.44 175.667L110.203 175.573L110.627 179.056C110.742 179.962 110.752 180.523 110.752 180.523C110.752 180.523 110.854 179.978 111.098 179.147L112.172 175.342L112.824 175.258L114.757 178.638C115.211 179.422 115.443 179.936 115.443 179.936C115.443 179.936 115.322 179.385 115.223 178.528L114.788 175.012L115.55 174.918L116.252 180.673L116.242 180.668Z" fill="white"/>
<path d="M106.461 181.576L102.729 181.624L102.725 180.973L105.695 180.94L105.67 179.166L103.23 179.2L103.226 178.549L105.666 178.515L105.642 176.45L102.656 176.489L102.652 175.838L106.4 175.784L106.467 181.592L106.461 181.576Z" fill="white"/>
<path d="M46.9823 55.5463C50.3063 51.7443 53.9528 48.3026 57.8582 45.2425L46.9823 55.5463Z" fill="white"/>
<path d="M46.9823 55.5463C50.3063 51.7443 53.9528 48.3026 57.8582 45.2425" stroke="white" stroke-width="0.591862" stroke-miterlimit="10"/>
<path d="M175.612 79.2236C177.099 84.0481 178.12 88.9568 178.68 93.886L175.612 79.2236Z" fill="white"/>
<path d="M175.612 79.2236C177.099 84.0481 178.12 88.9568 178.68 93.886" stroke="white" stroke-width="0.591862" stroke-miterlimit="10"/>
<path d="M87.7157 178.239C82.7992 177.057 78.0581 175.421 73.5397 173.393L87.7157 178.239Z" fill="white"/>
<path d="M87.7157 178.239C82.7992 177.057 78.0581 175.421 73.5397 173.393" stroke="white" stroke-width="0.591862" stroke-miterlimit="10"/> -->
<defs>
<filter id="filter0_b_1_1972" x="19.0029" y="20" width="170.002" height="170.002" filterUnits="userSpaceOnUse" color-interpolation-filters="sRGB">
<feFlood flood-opacity="0" result="BackgroundImageFix"/>
<feGaussianBlur in="BackgroundImageFix" stdDeviation="10"/>
<feComposite in2="SourceAlpha" operator="in" result="effect1_backgroundBlur_1_1972"/>
<feBlend mode="normal" in="SourceGraphic" in2="effect1_backgroundBlur_1_1972" result="shape"/>
</filter>
</defs>
</svg>
