<svg width="152" height="152" viewBox="0 0 152 152" fill="none" xmlns="http://www.w3.org/2000/svg">
<g filter="url(#filter0_b_1_3242)">
<circle cx="76" cy="76" r="76" fill="#DA8000"/>
</g>
<path d="M35.6115 80.096C36.8115 80.096 37.8555 79.544 38.2395 78.8V80H39.2715V75.692H35.2875V76.58H38.2515C38.2275 78.08 37.2195 79.148 35.6595 79.148C33.8595 79.148 32.6715 77.84 32.6715 75.8C32.6715 73.784 33.8595 72.452 35.6475 72.452C36.9555 72.452 37.8795 73.16 38.0595 74.336H39.1515C38.9475 72.608 37.7115 71.504 35.6475 71.504C33.1995 71.504 31.5675 73.208 31.5675 75.8C31.5675 78.5 33.3075 80.096 35.6115 80.096ZM41.8423 80H47.2663V79.052H42.9463V76.064H46.4743V75.116H42.9463V72.548H47.2423V71.6H41.8423V80ZM51.484 80H52.588V72.548H55.252V71.6H48.832V72.548H51.484V80ZM60.6012 80H61.7052V71.6H60.6012V80ZM64.5143 80H65.6183V74.792C65.6183 73.544 65.5223 72.752 65.5223 72.752C65.5223 72.752 65.8463 73.484 66.5303 74.612L69.7463 80H71.1623V71.6H70.0583V76.808C70.0583 78.056 70.1543 78.848 70.1543 78.848C70.1543 78.848 69.8303 78.116 69.1583 76.976L65.9303 71.6H64.5143V80ZM79.1707 80H80.2747V72.548H82.9387V71.6H76.5187V72.548H79.1707V80ZM88.2586 80.096C90.6346 80.096 92.3986 78.284 92.3986 75.8C92.3986 73.316 90.6346 71.504 88.2586 71.504C85.8586 71.504 84.1066 73.316 84.1066 75.8C84.1066 78.284 85.8586 80.096 88.2586 80.096ZM85.2106 75.8C85.2106 73.856 86.4946 72.452 88.2586 72.452C90.0226 72.452 91.3066 73.868 91.3066 75.8C91.3066 77.732 90.0226 79.148 88.2586 79.148C86.4946 79.148 85.2106 77.744 85.2106 75.8ZM97.9601 80.096C99.8801 80.096 101.2 78.86 101.2 77.048V71.6H100.108V77.048C100.108 78.284 99.2201 79.148 97.9601 79.148C96.6881 79.148 95.8001 78.284 95.8001 77.048V71.6H94.7081V77.048C94.7081 78.86 96.0281 80.096 97.9601 80.096ZM107.592 80.096C109.572 80.096 110.916 78.788 111.12 77.12H110.028C109.86 78.248 108.887 79.148 107.592 79.148C105.827 79.148 104.603 77.876 104.603 75.8C104.603 73.724 105.827 72.452 107.592 72.452C108.875 72.452 109.8 73.232 109.991 74.348H111.084C110.891 72.704 109.572 71.504 107.592 71.504C105.203 71.504 103.499 73.136 103.499 75.8C103.499 78.464 105.227 80.096 107.592 80.096ZM118.896 80H120V71.6H118.896V75.092H114.456V71.6H113.352V80H114.456V76.04H118.896V80Z" fill="white"/>
<defs>
<filter id="filter0_b_1_3242" x="-20" y="-20" width="192" height="192" filterUnits="userSpaceOnUse" color-interpolation-filters="sRGB">
<feFlood flood-opacity="0" result="BackgroundImageFix"/>
<feGaussianBlur in="BackgroundImageFix" stdDeviation="10"/>
<feComposite in2="SourceAlpha" operator="in" result="effect1_backgroundBlur_1_3242"/>
<feBlend mode="normal" in="SourceGraphic" in2="effect1_backgroundBlur_1_3242" result="shape"/>
</filter>
</defs>
</svg>
