<?xml version="1.0" standalone="no"?>
<!DOCTYPE svg PUBLIC "-//W3C//DTD SVG 20010904//EN"
 "http://www.w3.org/TR/2001/REC-SVG-20010904/DTD/svg10.dtd">
<svg version="1.0" xmlns="http://www.w3.org/2000/svg"
 width="16.000000pt" height="16.000000pt" viewBox="0 0 16.000000 16.000000"
 preserveAspectRatio="xMidYMid meet">
<metadata>
Created by potrace 1.11, written by Peter Selinger 2001-2013
</metadata>
<g transform="translate(0.000000,16.000000) scale(0.006154,-0.006154)"
fill="#000000" stroke="none">
<path d="M240 1300 l0 -800 130 0 130 0 0 665 0 665 135 0 135 0 0 -665 0
-665 130 0 130 0 0 665 0 665 530 0 530 0 0 -400 0 -400 130 0 130 0 0 535 0
535 -1055 0 -1055 0 0 -800z"/>
<path d="M1300 1035 l0 -535 525 0 525 0 0 135 0 135 -395 0 -395 0 0 265 0
265 130 0 130 0 0 135 0 135 -260 0 -260 0 0 -535z"/>
</g>
</svg>
