<svg xmlns="http://www.w3.org/2000/svg" viewBox="0 0 265.55 250.72"><defs><style>.cls-1{fill:none;}.cls-2{fill:#fff;}</style></defs><g id="Schutzzone"><rect class="cls-1" width="265.55" height="250.72"/></g><g id="Ebene_1" data-name="Ebene 1"><polygon class="cls-2" points="103.84 116.87 103.84 131.12 165.16 95.7 165.16 81.47 103.84 116.87"/><polygon class="cls-2" points="42.52 116.88 42.52 131.13 103.84 95.7 103.84 81.47 42.52 116.88"/><polygon class="cls-2" points="165.16 63.78 42.52 134.59 42.52 148.82 165.16 78.01 165.16 63.78"/><polygon class="cls-2" points="103.84 63.78 42.52 99.18 42.52 113.44 103.84 78.01 103.84 63.78"/><polygon class="cls-2" points="103.84 134.56 103.84 148.82 165.16 113.39 165.16 99.16 103.84 134.56"/><path class="cls-2" d="M156.47,185.15h9.72v-2.5h-6.93V180h6v-2.5h-6v-2.59h6.84v-2.49h-9.63Zm-7.5.18c2.75,0,4.69-1.42,4.69-4v0c0-2.23-1.46-3.15-4-3.83-2.21-.56-2.76-.84-2.76-1.68v0c0-.62.57-1.12,1.64-1.12a6.07,6.07,0,0,1,3.33,1.26l1.45-2.11a7.38,7.38,0,0,0-4.74-1.63c-2.61,0-4.47,1.53-4.47,3.85v0c0,2.53,1.66,3.24,4.23,3.9,2.14.55,2.58.91,2.58,1.62v0c0,.75-.7,1.2-1.85,1.2a5.86,5.86,0,0,1-3.81-1.55l-1.66,2a8.12,8.12,0,0,0,5.42,2m-11.86,0c2.76,0,4.69-1.42,4.69-4v0c0-2.23-1.46-3.15-4.05-3.83-2.2-.56-2.75-.84-2.75-1.68v0c0-.62.56-1.12,1.64-1.12a6,6,0,0,1,3.32,1.26l1.46-2.11a7.4,7.4,0,0,0-4.74-1.63c-2.61,0-4.47,1.53-4.47,3.85v0c0,2.53,1.66,3.24,4.23,3.9,2.13.55,2.57.91,2.57,1.62v0c0,.75-.69,1.2-1.84,1.2a5.84,5.84,0,0,1-3.81-1.55l-1.66,2a8.1,8.1,0,0,0,5.41,2M120,185.15h9.72v-2.5h-6.93V180h6v-2.5h-6v-2.59h6.84v-2.49H120Zm-16.2,0h2.76v-8.28l3.55,5.4h.08l3.59-5.45v8.33h2.79V172.39h-3l-3.35,5.39-3.36-5.39h-3Z"/><path class="cls-2" d="M189.55,208h2.77v-8.12L198.5,208h2.39V195.22h-2.77v7.86l-6-7.86h-2.59ZM177,208h9.72v-2.5h-6.93v-2.68h6v-2.5h-6v-2.59h6.84v-2.5H177Zm-14.22,0h2.81v-5.13h5.18V208h2.81V195.22h-2.81v5.05h-5.18v-5.05h-2.81Zm-7.84.21a6.52,6.52,0,0,0,5.23-2.27l-1.79-1.81a4.6,4.6,0,0,1-3.35,1.5,3.8,3.8,0,0,1-3.71-4v0a3.79,3.79,0,0,1,3.71-4,4.72,4.72,0,0,1,3.26,1.44L160,197a6.59,6.59,0,0,0-5-2,6.49,6.49,0,0,0-6.66,6.6v0a6.44,6.44,0,0,0,6.55,6.56M134.14,208h2.77v-8.12L143.1,208h2.39V195.22h-2.78v7.86l-6-7.86h-2.59ZM122,194.22h2.66V191.9H122Zm4,0h2.66V191.9H126Zm-.7,14c3.43,0,5.6-1.9,5.6-5.77v-7.2H128.1v7.31c0,2-1,3.07-2.75,3.07s-2.75-1.08-2.75-3.16v-7.22h-2.81v7.3c0,3.75,2.1,5.67,5.52,5.67m-21.52-.2h2.76v-8.28l3.55,5.39h.08l3.59-5.45V208h2.79V195.22h-3l-3.35,5.4-3.36-5.4h-3Z"/></g></svg>