<svg width="54" height="20" viewBox="0 0 54 20" fill="none" xmlns="http://www.w3.org/2000/svg">
<path fill-rule="evenodd" clip-rule="evenodd" d="M11.675 4.30174C11.8764 4.4906 11.8866 4.80702 11.6978 5.00848L7.01837 9.99984L11.6978 14.9912C11.8866 15.1927 11.8764 15.5091 11.675 15.6979C11.4735 15.8868 11.1571 15.8766 10.9682 15.6751L5.96824 10.3418C5.78793 10.1495 5.78793 9.8502 5.96824 9.65787L10.9682 4.32453C11.1571 4.12308 11.4735 4.11287 11.675 4.30174Z" fill="white"/>
<path fill-rule="evenodd" clip-rule="evenodd" d="M42.325 4.30157C42.5265 4.11271 42.8429 4.12291 43.0318 4.32437L48.0318 9.6577C48.2121 9.85003 48.2121 10.1493 48.0318 10.3416L43.0318 15.675C42.8429 15.8764 42.5265 15.8866 42.325 15.6978C42.1236 15.5089 42.1134 15.1925 42.3022 14.991L46.9816 9.99967L42.3022 5.00831C42.1134 4.80685 42.1236 4.49044 42.325 4.30157Z" fill="white"/>
</svg>
