<svg width="310" height="377" viewBox="0 0 310 377" fill="none" xmlns="http://www.w3.org/2000/svg">
<path d="M0.695312 -3.05176e-05H63.3926C67.4783 0.00317383 71.398 1.62097 74.301 4.50218L179.947 110.389C181.388 111.825 182.532 113.533 183.312 115.413C184.092 117.294 184.493 119.311 184.492 121.347V183.797H123.494L123.494 95.8395C123.494 86.6326 119.846 77.8025 113.351 71.291C106.856 64.7794 98.0459 61.1195 88.8588 61.116L0.695312 61.116L0.695312 -3.05176e-05Z" fill="#F8F8F8"/>
<path d="M309.065 376.784L246.368 376.784C242.282 376.781 238.363 375.163 235.46 372.282L129.814 266.395C128.373 264.959 127.229 263.251 126.449 261.37C125.669 259.49 125.268 257.473 125.269 255.436L125.269 192.987L186.266 192.987L186.266 280.944C186.266 290.151 189.915 298.981 196.41 305.493C202.905 312.004 211.715 315.664 220.902 315.668L309.065 315.668L309.065 376.784Z" fill="#F8F8F8"/>
</svg>
