<svg width="500" height="786" viewBox="0 0 500 786" fill="none" xmlns="http://www.w3.org/2000/svg">
<path fill-rule="evenodd" clip-rule="evenodd" d="M31.2734 11.9219V77.5657L95.124 77.6348V0H500V505.356H448.102C445.973 505.355 443.865 505.774 441.898 506.588C439.932 507.403 438.145 508.596 436.639 510.101L326.028 620.726C322.992 623.763 321.286 627.88 321.283 632.175V697.791L385.134 697.888V605.47C385.134 595.853 388.955 586.629 395.755 579.828C402.556 573.027 411.78 569.207 421.397 569.207H500V786H0V0H36.478L36.0186 0.459473C32.9819 3.50146 31.2754 7.62354 31.2734 11.9219ZM224.943 282.283H159.299C155.001 282.281 150.879 280.575 147.837 277.538L37.1978 166.913C34.1621 163.876 32.4556 159.758 32.4531 155.464V90.2617H96.3311V182.155C96.3311 191.774 100.151 200.999 106.952 207.802C113.752 214.605 122.976 218.428 132.595 218.432H225.012L224.943 282.283ZM432.298 489.701V424.084L368.447 423.988V516.405C368.447 526.023 364.626 535.247 357.826 542.047C351.025 548.848 341.801 552.669 332.184 552.669H240.291V616.52H305.479C307.608 616.52 309.716 616.101 311.683 615.287C313.649 614.473 315.437 613.279 316.942 611.774L427.553 501.149C430.589 498.113 432.295 493.995 432.298 489.701ZM239.57 218.813H305.186C309.48 218.816 313.598 220.522 316.635 223.558L427.26 334.169C428.765 335.675 429.958 337.462 430.772 339.429C431.587 341.396 432.005 343.503 432.005 345.632V410.821H368.154V318.927C368.154 309.31 364.333 300.086 357.533 293.285C350.732 286.485 341.508 282.664 331.891 282.664H239.473L239.57 218.813Z" fill="#1E1E1E"/>
</svg>
