<?xml version="1.0" encoding="UTF-8"?> <svg xmlns="http://www.w3.org/2000/svg" width="25" height="25" viewBox="0 0 25 25" fill="none"><path opacity="0.89" d="M21.0938 0H3.90625C2.87025 0 1.87666 0.411559 1.1441 1.14412C0.411535 1.87669 0 2.87025 0 3.90625V21.0938C0 22.1298 0.411535 23.1233 1.1441 23.8559C1.87666 24.5884 2.87025 25 3.90625 25H21.0938C22.1298 25 23.1233 24.5884 23.8559 23.8559C24.5884 23.1233 25 22.1298 25 21.0938V3.90625C25 2.87025 24.5884 1.87669 23.8559 1.14412C23.1233 0.411559 22.1298 0 21.0938 0ZM9.09374 18.4688H6.43749V10.4141H9.12499L9.09374 18.4688ZM7.74999 9.31251C7.48267 9.28092 7.23015 9.17285 7.02274 9.00128C6.81533 8.82971 6.66185 8.60195 6.58071 8.34529C6.49957 8.08864 6.49422 7.81403 6.56531 7.55441C6.6364 7.2948 6.7809 7.0612 6.98147 6.88169C7.18204 6.70218 7.43015 6.58437 7.69603 6.5424C7.96191 6.50043 8.23427 6.53608 8.48038 6.64508C8.7265 6.75408 8.93593 6.9318 9.08353 7.1569C9.23114 7.38199 9.31063 7.6449 9.31249 7.91407C9.31414 8.11386 9.27298 8.31169 9.19175 8.49423C9.11052 8.67678 8.9911 8.83978 8.84156 8.97229C8.69203 9.1048 8.51583 9.20373 8.32484 9.26242C8.13385 9.3211 7.93251 9.33819 7.73437 9.31251H7.74999ZM18.75 18.4688H16.0703V14.1562C16.0703 13.0781 15.6875 12.3359 14.7109 12.3359C14.4094 12.3389 14.1161 12.434 13.8703 12.6086C13.6245 12.7832 13.438 13.0288 13.3359 13.3125C13.2687 13.5245 13.2397 13.7466 13.25 13.9688V18.4688H10.5703C10.5703 18.4688 10.5703 11.1641 10.5703 10.4141H13.25V11.5234C13.4914 11.101 13.8443 10.753 14.27 10.5175C14.6957 10.2819 15.1779 10.1677 15.6641 10.1875C17.4297 10.1875 18.75 11.3438 18.75 13.8203V18.4688Z" fill="url(#paint0_linear_174_2467)"></path><defs><linearGradient id="paint0_linear_174_2467" x1="0" y1="12.5" x2="25" y2="12.5" gradientUnits="userSpaceOnUse"><stop stop-color="#ffffff"></stop><stop offset="0.63" stop-color="white"></stop><stop offset="1" stop-color="#FEFEFE"></stop></linearGradient></defs></svg> 